<svg width="204" height="204" viewBox="0 0 204 204" fill="none" xmlns="http://www.w3.org/2000/svg">
<circle cx="102" cy="102" r="102" fill="white"/>
<path d="M47.2 112V111.37L49.96 110.92V89.08L47.2 88.66V88H56.02V88.66L53.26 89.08V110.92L56.02 111.37V112H47.2ZM58.0307 111.4L60.1307 111.1V97.36L58.0307 97.06V96.46H63.1307V99.7C63.8707 98.62 64.7407 97.77 65.7407 97.15C66.7407 96.51 67.8207 96.19 68.9807 96.19C70.4207 96.19 71.5507 96.55 72.3707 97.27C73.2107 97.99 73.6307 99.06 73.6307 100.48V111.1L75.7307 111.4V112H68.8307V111.4L70.6307 111.1V100.54C70.6307 99.5 70.4207 98.7 70.0007 98.14C69.5807 97.56 68.9307 97.27 68.0507 97.27C67.1307 97.27 66.2407 97.61 65.3807 98.29C64.5407 98.95 63.7907 99.77 63.1307 100.75V111.1L64.9307 111.4V112H58.0307V111.4ZM84.7237 112.3C83.3037 112.3 82.0537 111.97 80.9737 111.31C79.8937 110.63 79.0537 109.69 78.4537 108.49C77.8537 107.27 77.5537 105.85 77.5537 104.23C77.5537 102.61 77.8537 101.2 78.4537 100C79.0537 98.78 79.8937 97.84 80.9737 97.18C82.0537 96.52 83.3037 96.19 84.7237 96.19C85.8837 96.19 86.8937 96.5 87.7537 97.12C88.6137 97.72 89.2937 98.55 89.7937 99.61V88.9L87.6937 88.6V88H92.7937V111.1L94.8937 111.4V112H89.7937V108.88C89.2937 109.94 88.6137 110.78 87.7537 111.4C86.8937 112 85.8837 112.3 84.7237 112.3ZM85.0237 111.55C85.9037 111.55 86.6937 111.3 87.3937 110.8C88.1137 110.28 88.6837 109.6 89.1037 108.76C89.5437 107.9 89.7737 106.97 89.7937 105.97V102.52C89.7737 101.52 89.5437 100.6 89.1037 99.76C88.6837 98.9 88.1137 98.22 87.3937 97.72C86.6937 97.2 85.9037 96.94 85.0237 96.94C82.2437 96.94 80.8537 98.87 80.8537 102.73V105.73C80.8537 109.61 82.2437 111.55 85.0237 111.55ZM104.722 112.3C103.242 112.3 101.902 111.97 100.702 111.31C99.5017 110.63 98.5517 109.68 97.8517 108.46C97.1517 107.24 96.8017 105.83 96.8017 104.23C96.8017 102.63 97.1417 101.23 97.8217 100.03C98.5217 98.81 99.4517 97.87 100.612 97.21C101.792 96.53 103.102 96.19 104.542 96.19C105.802 96.19 106.932 96.47 107.932 97.03C108.932 97.59 109.712 98.37 110.272 99.37C110.832 100.35 111.122 101.48 111.142 102.76H100.102V105.73C100.102 107.49 100.492 108.92 101.272 110.02C102.072 111.1 103.222 111.64 104.722 111.64C106.102 111.64 107.322 111.25 108.382 110.47C109.442 109.69 110.092 108.68 110.332 107.44H111.022C110.742 108.92 110.032 110.1 108.892 110.98C107.752 111.86 106.362 112.3 104.722 112.3ZM107.842 102.01C107.842 100.27 107.572 98.98 107.032 98.14C106.492 97.28 105.652 96.85 104.512 96.85C103.172 96.85 102.132 97.32 101.392 98.26C100.652 99.2 100.232 100.45 100.132 102.01H107.842ZM113.138 111.4L115.238 111.1V97.36L113.138 97.06V96.46H118.238V99.7C118.978 98.62 119.848 97.77 120.848 97.15C121.848 96.51 122.928 96.19 124.088 96.19C125.528 96.19 126.658 96.55 127.478 97.27C128.318 97.99 128.738 99.06 128.738 100.48V111.1L130.838 111.4V112H123.938V111.4L125.738 111.1V100.54C125.738 99.5 125.528 98.7 125.108 98.14C124.688 97.56 124.038 97.27 123.158 97.27C122.238 97.27 121.348 97.61 120.488 98.29C119.648 98.95 118.898 99.77 118.238 100.75V111.1L120.038 111.4V112H113.138V111.4ZM138.391 112.3C137.071 112.3 136.011 111.97 135.211 111.31C134.431 110.65 134.041 109.6 134.041 108.16V97.36L131.911 97.06V96.46H134.041V93.97L137.041 93.22V96.46H140.941V97.06L137.041 97.36V108.1C137.041 110.22 137.801 111.28 139.321 111.28C139.641 111.28 139.941 111.23 140.221 111.13C140.521 111.03 140.751 110.93 140.911 110.83C141.091 110.73 141.201 110.66 141.241 110.62L141.631 111.1C140.731 111.9 139.651 112.3 138.391 112.3ZM147.531 112.3C146.251 112.3 145.201 111.97 144.381 111.31C143.561 110.63 143.151 109.63 143.151 108.31C143.151 106.43 143.941 105.1 145.521 104.32C147.101 103.52 148.931 103.12 151.011 103.12H153.021V100.81C153.021 99.77 152.901 98.97 152.661 98.41C152.441 97.83 152.091 97.43 151.611 97.21C151.131 96.97 150.481 96.85 149.661 96.85C148.721 96.85 148.021 97.04 147.561 97.42C147.101 97.78 146.871 98.27 146.871 98.89C146.871 99.47 147.151 99.85 147.711 100.03C147.711 100.53 147.521 100.97 147.141 101.35C146.761 101.73 146.311 101.92 145.791 101.92C145.231 101.92 144.781 101.77 144.441 101.47C144.101 101.15 143.931 100.67 143.931 100.03C143.931 98.87 144.511 97.94 145.671 97.24C146.831 96.54 148.281 96.19 150.021 96.19C154.021 96.19 156.021 97.93 156.021 101.41V109.99C156.021 110.43 156.111 110.77 156.291 111.01C156.491 111.23 156.771 111.34 157.131 111.34C157.471 111.34 157.741 111.23 157.941 111.01C158.141 110.77 158.241 110.45 158.241 110.05H158.871C158.871 110.75 158.641 111.3 158.181 111.7C157.741 112.1 157.121 112.3 156.321 112.3C155.401 112.3 154.621 112.04 153.981 111.52C153.361 110.98 153.041 110.15 153.021 109.03C152.541 110.05 151.801 110.85 150.801 111.43C149.821 112.01 148.731 112.3 147.531 112.3ZM149.181 110.98C149.721 110.98 150.271 110.82 150.831 110.5C151.411 110.18 151.901 109.72 152.301 109.12C152.701 108.5 152.941 107.76 153.021 106.9V103.78H151.011C149.371 103.78 148.141 104.15 147.321 104.89C146.521 105.61 146.121 106.63 146.121 107.95C146.121 109.05 146.381 109.83 146.901 110.29C147.421 110.75 148.181 110.98 149.181 110.98Z" fill="#073454"/>
<line x1="79" y1="121.5" x2="119" y2="121.5" stroke="black" stroke-width="3"/>
<circle cx="123.5" cy="123.5" r="1.5" fill="black"/>
</svg>
